<?xml version="1.0" encoding="utf-8"?>
<!-- Generator: Adobe Illustrator 15.0.2, SVG Export Plug-In . SVG Version: 6.00 Build 0)  -->
<!DOCTYPE svg PUBLIC "-//W3C//DTD SVG 1.1//EN" "http://www.w3.org/Graphics/SVG/1.1/DTD/svg11.dtd">
<svg xmlns="http://www.w3.org/2000/svg" xmlns:xlink="http://www.w3.org/1999/xlink" version="1.1" id="Calque_1" x="0px" y="0px" width="16" height="16" viewBox="0 0 512 512" enable-background="new 0 0 512 512" xml:space="preserve">
<g>
	<path fill="#333333" d="M326.908,94.812c-38.934-17.16-82.97-19.854-123.886-6.882c-77.722,24.466-128.21,98.22-122.964,179.417   l-53.044,3.471C20.139,165.09,85.945,69.072,186.997,37.16c59.214-18.656,123.319-12.202,177.779,17.23L415.695,0l13.544,150.908   l-159.84,5.318L326.908,94.812z M324.927,474.84c-22.41,7.024-45.672,10.568-68.788,10.568c-37.656,0-75.028-9.716-108.782-27.874   L96.371,512L82.825,361.094l159.768-5.386l-57.442,61.48c38.864,17.092,82.9,19.785,123.818,6.876   c77.722-24.537,128.284-98.358,122.964-179.411l53.042-3.476C491.927,346.766,426.12,442.86,324.927,474.84z"/>
</g>
</svg>
