<?xml version="1.0" encoding="utf-8"?>
<!-- Generator: Adobe Illustrator 15.0.2, SVG Export Plug-In . SVG Version: 6.00 Build 0)  -->
<!DOCTYPE svg PUBLIC "-//W3C//DTD SVG 1.1//EN" "http://www.w3.org/Graphics/SVG/1.1/DTD/svg11.dtd">
<svg xmlns="http://www.w3.org/2000/svg" xmlns:xlink="http://www.w3.org/1999/xlink" version="1.1" id="Calque_1" x="0px" y="0px" width="16" height="16" viewBox="0 0 512 512" enable-background="new 0 0 512 512" xml:space="preserve" fill="#000000">
<g>
	<g>
		<path fill="#000000" d="M237.12,188.472c1.648,46.735-30.78,84.617-72.44,84.617c-41.66,0-76.77-37.882-78.424-84.617    c-1.65-46.732,30.78-84.616,72.44-84.616C200.356,103.856,235.466,141.74,237.12,188.472z"/>
		<path fill="#000000" d="M-0.002,443.856c0,0,3.096-109.725,29.642-141.576c26.546-31.864,70.792-29.19,70.792-29.19    s29.202,31.526,65.924,31.526s65.922-31.526,65.922-31.526s44.244-2.674,70.792,29.19    c26.546,31.852,29.642,141.576,29.642,141.576H-0.002L-0.002,443.856z"/>
	</g>
</g>
<g>
	<g>
		<path fill="#000000" d="M483.23,261.848c-25.769-30.927-68.71-28.33-68.71-28.33s-28.343,30.598-63.984,30.598    c-35.641,0-63.984-30.598-63.984-30.598s-20.102-1.208-41.048,7.926c-2.05,4.048-4.342,7.954-6.892,11.666    c15.828,0.588,54.014,5.386,79.829,36.368c19.079,22.892,27.586,72.405,31.361,109.784H512    C512,399.26,508.996,292.764,483.23,261.848z M348.91,233.518c40.434,0,71.908-36.771,70.308-82.13    c-1.605-45.358-35.684-82.126-76.118-82.126c-40.436,0-71.912,36.77-70.31,82.126C274.398,196.748,308.476,233.518,348.91,233.518    z"/>
	</g>
</g>
</svg>
