<?xml version="1.0" encoding="utf-8"?>
<!-- Generator: Adobe Illustrator 15.0.2, SVG Export Plug-In . SVG Version: 6.00 Build 0)  -->
<!DOCTYPE svg PUBLIC "-//W3C//DTD SVG 1.1//EN" "http://www.w3.org/Graphics/SVG/1.1/DTD/svg11.dtd">
<svg xmlns="http://www.w3.org/2000/svg" xmlns:xlink="http://www.w3.org/1999/xlink" version="1.1" id="Calque_1" x="0px" y="0px" width="16" height="16" viewBox="0 0 512 512" enable-background="new 0 0 512 512" xml:space="preserve" fill="#b1b1b1">
<g>
	<path fill="#b1b1b1" d="M288.002,0.018c-21.324-0.031-42.666-0.015-63.991,0c0,74.662,0.015,149.324,0,223.987   c-74.66,0.015-149.32,0.015-223.98,0C-0.015,245.329,0.063,266.64,0,287.949c74.675,0.094,149.335,0.016,224.011,0.048   c0.015,74.66,0,149.324,0,223.984c21.325,0.016,42.667,0.032,63.991,0c0-74.66-0.016-149.324,0-223.984   c74.66-0.016,149.32,0,223.98-0.016c0.016-21.326,0.03-42.652,0-63.977c-74.66,0-149.32,0.015-223.98,0   C288.002,149.342,287.987,74.68,288.002,0.018z"/>
</g>
</svg>
